<?xml version="1.0" encoding="UTF-8"?>
<svg xmlns="http://www.w3.org/2000/svg" width="32" height="32" viewBox="0 0 32 32" style="fill: #313729; fill-rule: evenodd;">
  <path d="M11.688,27.25c0,0.5,1.625,1.375,4.125,1.375,2.75,0,4.438-.828,4.438-1.312a13.5,13.5,0,0,0,3.188-2.625C25.5,24.422,30.881,22.313,31,20c0.1-2-1.167-3.746-4-3V16c0-1.719-6.875-3-11-3-4.653,0-11,1.094-11,3C5,21.781,8.109,25.037,11.688,27.25Zm-5.375-11c0,0.58,1.162,2.125,9.438,2.125s9.938-1.3,9.938-2.062-2.8-2-9.687-2C9.385,14.313,6.313,15.443,6.313,16.25Zm22.875,3.563c0,1.538-3.557,3.246-4.625,3.25a17.821,17.821,0,0,0,1.25-3.25C27.728,17.135,29.188,18.57,29.188,19.813ZM7,23a17.489,17.489,0,0,0-1-1.625c-0.986,0-4.75,1.537-4.75,3.438,0,1.666,2.255,2.889,5.188,4.375a21.079,21.079,0,0,0,9.375,2.688c6.352,0,11.281-3.574,11.75-3.812,2.076-1.054,3.125-2.028,3.125-3.062a2.167,2.167,0,0,0-1.375-2.125C29.144,22.947,28.144,23.9,28,24a1.03,1.03,0,0,1,1,1c0,2.116-6.772,5-13,5S3,26.829,3,25C3,23.418,6.323,23,7,23Zm7.438-10.062a4.946,4.946,0,0,0,1.188-2.687C15.625,8.917,13,7.666,13,6c0-1.816,2-4,2-4s-3,2.73-3,4c0,2.455,2.813,3.327,2.813,4.938C14.813,12.7,14.438,12.938,14.438,12.938Zm4-12.812a5.994,5.994,0,0,0-1,3.188c0,2.463,1.688,3.648,1.688,5.125,0,1.552-1.875,3.25-1.875,3.25s0.688-.683.688-3.062c0-1.081-1.812-2.915-1.812-4.5C16.125,2.088,18.438.125,18.438,0.125Z"/>
</svg>
