<?xml version="1.0" encoding="UTF-8"?>
<svg xmlns="http://www.w3.org/2000/svg" width="96" height="16" viewBox="0 0 96 16" style="fill: #041b17">
  <path id="hungry_snake" d="M5.376,7.056H3.024V2H0.672V13.792H3.024V8.736H5.376v5.056H7.75V2H5.376V7.056ZM13.8,11.264a0.728,0.728,0,0,1-.224.56,1.4,1.4,0,0,1-.941.272,1.373,1.373,0,0,1-.93-0.24,0.8,0.8,0,0,1-.258-0.608V2H9.094v9.264A2.194,2.194,0,0,0,9.9,12.912a3.907,3.907,0,0,0,2.733.88,3.948,3.948,0,0,0,2.755-.9,2.137,2.137,0,0,0,.784-1.632V2H13.8v9.264Zm9.99-8.384A3.909,3.909,0,0,0,21.056,2a3.943,3.943,0,0,0-2.755.88,2.152,2.152,0,0,0-.784,1.648v9.264h2.352V4.528a0.787,0.787,0,0,1,.269-0.6,1.347,1.347,0,0,1,.918-0.248A1.35,1.35,0,0,1,22,3.968a0.728,0.728,0,0,1,.224.56v9.264h2.374V4.528a2.162,2.162,0,0,0-.806-1.648h0Zm8.422,0A3.909,3.909,0,0,0,29.478,2a3.943,3.943,0,0,0-2.755.88,2.152,2.152,0,0,0-.784,1.648v6.736a2.194,2.194,0,0,0,.806,1.648,3.907,3.907,0,0,0,2.733.88,3.948,3.948,0,0,0,2.755-.9,2.137,2.137,0,0,0,.784-1.632V7.056H29.478v1.68h1.165v2.528a0.728,0.728,0,0,1-.224.56,1.4,1.4,0,0,1-.941.272,1.373,1.373,0,0,1-.93-0.24,0.8,0.8,0,0,1-.258-0.608V4.528a0.787,0.787,0,0,1,.269-0.6,1.748,1.748,0,0,1,1.859.04,0.728,0.728,0,0,1,.224.56v1.68h2.374V4.528a2.162,2.162,0,0,0-.806-1.648h0Zm8.422,0A3.909,3.909,0,0,0,37.9,2a3.943,3.943,0,0,0-2.755.88,2.152,2.152,0,0,0-.784,1.648v9.264h2.352V8.736H37.9a1.664,1.664,0,0,1,.818.192,0.687,0.687,0,0,1,.347.656v4.208h2.374V9.584a2,2,0,0,0-.224-0.96,2.381,2.381,0,0,0-.627-0.736,2.467,2.467,0,0,0,.661-0.808,2.04,2.04,0,0,0,.19-0.872V4.528a2.162,2.162,0,0,0-.806-1.648h0Zm-3.92,4.176V4.528a0.787,0.787,0,0,1,.269-0.6,1.748,1.748,0,0,1,1.859.04,0.728,0.728,0,0,1,.224.56v1.68a0.748,0.748,0,0,1-.224.576,1.4,1.4,0,0,1-.941.272H36.713Zm10.774-.848a0.748,0.748,0,0,1-.224.576,1.4,1.4,0,0,1-.941.272,1.34,1.34,0,0,1-.93-0.248,0.819,0.819,0,0,1-.258-0.616V2H42.783V6.208A2.12,2.12,0,0,0,43.321,7.6a3.128,3.128,0,0,0,1.814,1.008v5.184h2.352V8.608a3.2,3.2,0,0,0,1.837-1.024,2.1,2.1,0,0,0,.538-1.376V2H47.487V6.208Zm13-3.328A4.718,4.718,0,0,0,55,2.88a2.152,2.152,0,0,0-.784,1.648v1.68a2.161,2.161,0,0,0,.806,1.648,3.907,3.907,0,0,0,2.733.88,1.35,1.35,0,0,1,.941.288,0.728,0.728,0,0,1,.224.56v1.68a0.728,0.728,0,0,1-.224.56,1.4,1.4,0,0,1-.941.272,1.373,1.373,0,0,1-.93-0.24,0.794,0.794,0,0,1-.258-0.608V9.584H54.213v1.68a2.194,2.194,0,0,0,.806,1.648,3.907,3.907,0,0,0,2.733.88,3.948,3.948,0,0,0,2.755-.9,2.138,2.138,0,0,0,.784-1.632V9.584a2.162,2.162,0,0,0-.806-1.648,3.91,3.91,0,0,0-2.733-.88,1.34,1.34,0,0,1-.93-0.248,0.819,0.819,0,0,1-.258-0.616V4.528a0.787,0.787,0,0,1,.269-0.6,1.748,1.748,0,0,1,1.859.04,0.728,0.728,0,0,1,.224.56v1.68h2.374V4.528a2.162,2.162,0,0,0-.806-1.648h0Zm8.422,0a4.718,4.718,0,0,0-5.488,0,2.152,2.152,0,0,0-.784,1.648v9.264h2.352V4.528a0.787,0.787,0,0,1,.269-0.6,1.748,1.748,0,0,1,1.859.04,0.728,0.728,0,0,1,.224.56v9.264h2.374V4.528a2.162,2.162,0,0,0-.806-1.648h0Zm8.422,0a4.718,4.718,0,0,0-5.488,0,2.152,2.152,0,0,0-.784,1.648v9.264H73.41V8.736h2.352v5.056h2.374V4.528A2.162,2.162,0,0,0,77.33,2.88h0ZM73.41,7.056V4.528a0.787,0.787,0,0,1,.269-0.6,1.748,1.748,0,0,1,1.859.04,0.728,0.728,0,0,1,.224.56V7.056H73.41Zm10.774-.848a0.715,0.715,0,0,1-.4.688,1.632,1.632,0,0,1-.784.16H81.832V2H79.48V13.792h2.352V8.736h1.187a1.35,1.35,0,0,1,.941.288,0.728,0.728,0,0,1,.224.56v4.208h2.374V9.584a2.012,2.012,0,0,0-.213-0.864A2.509,2.509,0,0,0,85.707,7.9a2.539,2.539,0,0,0,.638-0.752,1.982,1.982,0,0,0,.213-0.944V2H84.184V6.208Zm9.99-3.328a4.718,4.718,0,0,0-5.488,0A2.152,2.152,0,0,0,87.9,4.528v6.736a2.194,2.194,0,0,0,.806,1.648,3.907,3.907,0,0,0,2.733.88,3.948,3.948,0,0,0,2.755-.9,2.137,2.137,0,0,0,.784-1.632V9.584H92.606v1.68a0.728,0.728,0,0,1-.224.56,1.4,1.4,0,0,1-.941.272,1.373,1.373,0,0,1-.93-0.24,0.8,0.8,0,0,1-.258-0.608V8.736h3.539V7.056H90.254V4.528a0.787,0.787,0,0,1,.269-0.6,1.748,1.748,0,0,1,1.859.04,0.728,0.728,0,0,1,.224.56v1.68H94.98V4.528a2.162,2.162,0,0,0-.806-1.648h0Z"/>
</svg>
