<?xml version="1.0" encoding="UTF-8" standalone="no"?>
<!DOCTYPE svg PUBLIC "-//W3C//DTD SVG 1.1//EN" "http://www.w3.org/Graphics/SVG/1.1/DTD/svg11.dtd">
<svg>
<metadata>
Created by FontForge 20120731 at Thu Dec 13 16:13:31 2018
 By www
FREEWARE! from Alan Carr. Remember to vote! If you don't vote, you cant bitch!
</metadata>
<defs>
<font id="CarrArrowsfilled" horiz-adv-x="4297">
  <font-face font-family="Carr Arrows (filled)" font-weight="400" font-stretch="normal" units-per-em="4096" panose-1="4 11 114 0 0 0 0 0 0 0" ascent="3276" descent="-820" x-height="4088" cap-height="2216" bbox="-8 -16 4112 4112" underline-thickness="50" underline-position="-75" unicode-range="U+001D-02C7"/>
<missing-glyph horiz-adv-x="3072" d="M512 0v2560h2048v-2560h-2048zM2494 66v2428h-1916v-2428h1916z"/>
    <glyph glyph-name=".notdef" unicode="ˇ" horiz-adv-x="3072" d="M512 0v2560h2048v-2560h-2048zM2494 66v2428h-1916v-2428h1916z"/>
    <glyph glyph-name=".notdef" unicode="˛" horiz-adv-x="3072" d="M512 0v2560h2048v-2560h-2048zM2494 66v2428h-1916v-2428h1916z"/>
    <glyph glyph-name=".notdef" unicode="˝" horiz-adv-x="3072" d="M512 0v2560h2048v-2560h-2048zM2494 66v2428h-1916v-2428h1916z"/>
    <glyph glyph-name=".notdef" unicode="¸" horiz-adv-x="3072" d="M512 0v2560h2048v-2560h-2048zM2494 66v2428h-1916v-2428h1916z"/>
    <glyph glyph-name=".notdef" unicode="˚" horiz-adv-x="3072" d="M512 0v2560h2048v-2560h-2048zM2494 66v2428h-1916v-2428h1916z"/>
    <glyph glyph-name=".notdef" unicode="˙" horiz-adv-x="3072" d="M512 0v2560h2048v-2560h-2048zM2494 66v2428h-1916v-2428h1916z"/>
    <glyph glyph-name=".notdef" unicode="˘" horiz-adv-x="3072" d="M512 0v2560h2048v-2560h-2048zM2494 66v2428h-1916v-2428h1916z"/>
    <glyph glyph-name=".notdef" unicode="¯" horiz-adv-x="3072" d="M512 0v2560h2048v-2560h-2048zM2494 66v2428h-1916v-2428h1916z"/>
    <glyph glyph-name=".notdef" unicode="˜" horiz-adv-x="3072" d="M512 0v2560h2048v-2560h-2048zM2494 66v2428h-1916v-2428h1916z"/>
    <glyph glyph-name=".notdef" unicode="ˆ" horiz-adv-x="3072" d="M512 0v2560h2048v-2560h-2048zM2494 66v2428h-1916v-2428h1916z"/>
    <glyph glyph-name=".notdef" unicode="ı" horiz-adv-x="3072" d="M512 0v2560h2048v-2560h-2048zM2494 66v2428h-1916v-2428h1916z"/>
    <glyph glyph-name=".notdef" unicode="Ù" horiz-adv-x="3072" d="M512 0v2560h2048v-2560h-2048zM2494 66v2428h-1916v-2428h1916z"/>
    <glyph glyph-name=".notdef" unicode="Û" horiz-adv-x="3072" d="M512 0v2560h2048v-2560h-2048zM2494 66v2428h-1916v-2428h1916z"/>
    <glyph glyph-name=".notdef" unicode="Ú" horiz-adv-x="3072" d="M512 0v2560h2048v-2560h-2048zM2494 66v2428h-1916v-2428h1916z"/>
    <glyph glyph-name=".notdef" unicode="Ò" horiz-adv-x="3072" d="M512 0v2560h2048v-2560h-2048zM2494 66v2428h-1916v-2428h1916z"/>
    <glyph glyph-name=".notdef" unicode="" horiz-adv-x="3072" d="M512 0v2560h2048v-2560h-2048zM2494 66v2428h-1916v-2428h1916z"/>
    <glyph glyph-name=".notdef" unicode="Ô" horiz-adv-x="3072" d="M512 0v2560h2048v-2560h-2048zM2494 66v2428h-1916v-2428h1916z"/>
    <glyph glyph-name=".notdef" unicode="Ó" horiz-adv-x="3072" d="M512 0v2560h2048v-2560h-2048zM2494 66v2428h-1916v-2428h1916z"/>
    <glyph glyph-name=".notdef" unicode="Ì" horiz-adv-x="3072" d="M512 0v2560h2048v-2560h-2048zM2494 66v2428h-1916v-2428h1916z"/>
    <glyph glyph-name=".notdef" unicode="Ï" horiz-adv-x="3072" d="M512 0v2560h2048v-2560h-2048zM2494 66v2428h-1916v-2428h1916z"/>
    <glyph glyph-name=".notdef" unicode="Î" horiz-adv-x="3072" d="M512 0v2560h2048v-2560h-2048zM2494 66v2428h-1916v-2428h1916z"/>
    <glyph glyph-name=".notdef" unicode="Í" horiz-adv-x="3072" d="M512 0v2560h2048v-2560h-2048zM2494 66v2428h-1916v-2428h1916z"/>
    <glyph glyph-name=".notdef" unicode="È" horiz-adv-x="3072" d="M512 0v2560h2048v-2560h-2048zM2494 66v2428h-1916v-2428h1916z"/>
    <glyph glyph-name=".notdef" unicode="Ë" horiz-adv-x="3072" d="M512 0v2560h2048v-2560h-2048zM2494 66v2428h-1916v-2428h1916z"/>
    <glyph glyph-name=".notdef" unicode="Á" horiz-adv-x="3072" d="M512 0v2560h2048v-2560h-2048zM2494 66v2428h-1916v-2428h1916z"/>
    <glyph glyph-name=".notdef" unicode="Ê" horiz-adv-x="3072" d="M512 0v2560h2048v-2560h-2048zM2494 66v2428h-1916v-2428h1916z"/>
    <glyph glyph-name=".notdef" unicode="Â" horiz-adv-x="3072" d="M512 0v2560h2048v-2560h-2048zM2494 66v2428h-1916v-2428h1916z"/>
    <glyph glyph-name=".notdef" unicode="‰" horiz-adv-x="3072" d="M512 0v2560h2048v-2560h-2048zM2494 66v2428h-1916v-2428h1916z"/>
    <glyph glyph-name=".notdef" unicode="„" horiz-adv-x="3072" d="M512 0v2560h2048v-2560h-2048zM2494 66v2428h-1916v-2428h1916z"/>
    <glyph glyph-name=".notdef" unicode="‚" horiz-adv-x="3072" d="M512 0v2560h2048v-2560h-2048zM2494 66v2428h-1916v-2428h1916z"/>
    <glyph glyph-name=".notdef" unicode="·" horiz-adv-x="3072" d="M512 0v2560h2048v-2560h-2048zM2494 66v2428h-1916v-2428h1916z"/>
    <glyph glyph-name=".notdef" unicode="‡" horiz-adv-x="3072" d="M512 0v2560h2048v-2560h-2048zM2494 66v2428h-1916v-2428h1916z"/>
    <glyph glyph-name=".notdef" unicode="ﬂ" horiz-adv-x="3072" d="M512 0v2560h2048v-2560h-2048zM2494 66v2428h-1916v-2428h1916z"/>
    <glyph glyph-name=".notdef" unicode="ﬁ" horiz-adv-x="3072" d="M512 0v2560h2048v-2560h-2048zM2494 66v2428h-1916v-2428h1916z"/>
    <glyph glyph-name=".notdef" unicode="›" horiz-adv-x="3072" d="M512 0v2560h2048v-2560h-2048zM2494 66v2428h-1916v-2428h1916z"/>
    <glyph glyph-name=".notdef" unicode="‹" horiz-adv-x="3072" d="M512 0v2560h2048v-2560h-2048zM2494 66v2428h-1916v-2428h1916z"/>
    <glyph glyph-name=".notdef" unicode="€" horiz-adv-x="3072" d="M512 0v2560h2048v-2560h-2048zM2494 66v2428h-1916v-2428h1916z"/>
    <glyph glyph-name=".notdef" unicode="⁄" horiz-adv-x="3072" d="M512 0v2560h2048v-2560h-2048zM2494 66v2428h-1916v-2428h1916z"/>
    <glyph glyph-name=".notdef" unicode="Ÿ" horiz-adv-x="3072" d="M512 0v2560h2048v-2560h-2048zM2494 66v2428h-1916v-2428h1916z"/>
    <glyph glyph-name=".notdef" unicode="ÿ" horiz-adv-x="3072" d="M512 0v2560h2048v-2560h-2048zM2494 66v2428h-1916v-2428h1916z"/>
    <glyph glyph-name=".notdef" unicode="◊" horiz-adv-x="3072" d="M512 0v2560h2048v-2560h-2048zM2494 66v2428h-1916v-2428h1916z"/>
    <glyph glyph-name=".notdef" unicode="÷" horiz-adv-x="3072" d="M512 0v2560h2048v-2560h-2048zM2494 66v2428h-1916v-2428h1916z"/>
    <glyph glyph-name=".notdef" unicode="’" horiz-adv-x="3072" d="M512 0v2560h2048v-2560h-2048zM2494 66v2428h-1916v-2428h1916z"/>
    <glyph glyph-name=".notdef" unicode="‘" horiz-adv-x="3072" d="M512 0v2560h2048v-2560h-2048zM2494 66v2428h-1916v-2428h1916z"/>
    <glyph glyph-name=".notdef" unicode="”" horiz-adv-x="3072" d="M512 0v2560h2048v-2560h-2048zM2494 66v2428h-1916v-2428h1916z"/>
    <glyph glyph-name=".notdef" unicode="“" horiz-adv-x="3072" d="M512 0v2560h2048v-2560h-2048zM2494 66v2428h-1916v-2428h1916z"/>
    <glyph glyph-name=".notdef" unicode="—" horiz-adv-x="3072" d="M512 0v2560h2048v-2560h-2048zM2494 66v2428h-1916v-2428h1916z"/>
    <glyph glyph-name=".notdef" unicode="–" horiz-adv-x="3072" d="M512 0v2560h2048v-2560h-2048zM2494 66v2428h-1916v-2428h1916z"/>
    <glyph glyph-name=".notdef" unicode="œ" horiz-adv-x="3072" d="M512 0v2560h2048v-2560h-2048zM2494 66v2428h-1916v-2428h1916z"/>
    <glyph glyph-name=".notdef" unicode="Œ" horiz-adv-x="3072" d="M512 0v2560h2048v-2560h-2048zM2494 66v2428h-1916v-2428h1916z"/>
    <glyph glyph-name=".notdef" unicode="Õ" horiz-adv-x="3072" d="M512 0v2560h2048v-2560h-2048zM2494 66v2428h-1916v-2428h1916z"/>
    <glyph glyph-name=".notdef" unicode="Ã" horiz-adv-x="3072" d="M512 0v2560h2048v-2560h-2048zM2494 66v2428h-1916v-2428h1916z"/>
    <glyph glyph-name=".notdef" unicode="À" horiz-adv-x="3072" d="M512 0v2560h2048v-2560h-2048zM2494 66v2428h-1916v-2428h1916z"/>
    <glyph glyph-name=".notdef" unicode="…" horiz-adv-x="3072" d="M512 0v2560h2048v-2560h-2048zM2494 66v2428h-1916v-2428h1916z"/>
    <glyph glyph-name=".notdef" unicode="»" horiz-adv-x="3072" d="M512 0v2560h2048v-2560h-2048zM2494 66v2428h-1916v-2428h1916z"/>
    <glyph glyph-name=".notdef" unicode="«" horiz-adv-x="3072" d="M512 0v2560h2048v-2560h-2048zM2494 66v2428h-1916v-2428h1916z"/>
    <glyph glyph-name=".notdef" unicode="Δ" horiz-adv-x="3072" d="M512 0v2560h2048v-2560h-2048zM2494 66v2428h-1916v-2428h1916z"/>
    <glyph glyph-name=".notdef" unicode="≈" horiz-adv-x="3072" d="M512 0v2560h2048v-2560h-2048zM2494 66v2428h-1916v-2428h1916z"/>
    <glyph glyph-name=".notdef" unicode="ƒ" horiz-adv-x="3072" d="M512 0v2560h2048v-2560h-2048zM2494 66v2428h-1916v-2428h1916z"/>
    <glyph glyph-name=".notdef" unicode="√" horiz-adv-x="3072" d="M512 0v2560h2048v-2560h-2048zM2494 66v2428h-1916v-2428h1916z"/>
    <glyph glyph-name=".notdef" unicode="¬" horiz-adv-x="3072" d="M512 0v2560h2048v-2560h-2048zM2494 66v2428h-1916v-2428h1916z"/>
    <glyph glyph-name=".notdef" unicode="¡" horiz-adv-x="3072" d="M512 0v2560h2048v-2560h-2048zM2494 66v2428h-1916v-2428h1916z"/>
    <glyph glyph-name=".notdef" unicode="¿" horiz-adv-x="3072" d="M512 0v2560h2048v-2560h-2048zM2494 66v2428h-1916v-2428h1916z"/>
    <glyph glyph-name=".notdef" unicode="ø" horiz-adv-x="3072" d="M512 0v2560h2048v-2560h-2048zM2494 66v2428h-1916v-2428h1916z"/>
    <glyph glyph-name=".notdef" unicode="æ" horiz-adv-x="3072" d="M512 0v2560h2048v-2560h-2048zM2494 66v2428h-1916v-2428h1916z"/>
    <glyph glyph-name=".notdef" unicode="Ω" horiz-adv-x="3072" d="M512 0v2560h2048v-2560h-2048zM2494 66v2428h-1916v-2428h1916z"/>
    <glyph glyph-name=".notdef" unicode="º" horiz-adv-x="3072" d="M512 0v2560h2048v-2560h-2048zM2494 66v2428h-1916v-2428h1916z"/>
    <glyph glyph-name=".notdef" unicode="ª" horiz-adv-x="3072" d="M512 0v2560h2048v-2560h-2048zM2494 66v2428h-1916v-2428h1916z"/>
    <glyph glyph-name=".notdef" unicode="∫" horiz-adv-x="3072" d="M512 0v2560h2048v-2560h-2048zM2494 66v2428h-1916v-2428h1916z"/>
    <glyph glyph-name=".notdef" unicode="π" horiz-adv-x="3072" d="M512 0v2560h2048v-2560h-2048zM2494 66v2428h-1916v-2428h1916z"/>
    <glyph glyph-name=".notdef" unicode="∏" horiz-adv-x="3072" d="M512 0v2560h2048v-2560h-2048zM2494 66v2428h-1916v-2428h1916z"/>
    <glyph glyph-name=".notdef" unicode="∑" horiz-adv-x="3072" d="M512 0v2560h2048v-2560h-2048zM2494 66v2428h-1916v-2428h1916z"/>
    <glyph glyph-name=".notdef" unicode="∂" horiz-adv-x="3072" d="M512 0v2560h2048v-2560h-2048zM2494 66v2428h-1916v-2428h1916z"/>
    <glyph glyph-name=".notdef" unicode="µ" horiz-adv-x="3072" d="M512 0v2560h2048v-2560h-2048zM2494 66v2428h-1916v-2428h1916z"/>
    <glyph glyph-name=".notdef" unicode="¥" horiz-adv-x="3072" d="M512 0v2560h2048v-2560h-2048zM2494 66v2428h-1916v-2428h1916z"/>
    <glyph glyph-name=".notdef" unicode="≥" horiz-adv-x="3072" d="M512 0v2560h2048v-2560h-2048zM2494 66v2428h-1916v-2428h1916z"/>
    <glyph glyph-name=".notdef" unicode="≤" horiz-adv-x="3072" d="M512 0v2560h2048v-2560h-2048zM2494 66v2428h-1916v-2428h1916z"/>
    <glyph glyph-name=".notdef" unicode="±" horiz-adv-x="3072" d="M512 0v2560h2048v-2560h-2048zM2494 66v2428h-1916v-2428h1916z"/>
    <glyph glyph-name=".notdef" unicode="∞" horiz-adv-x="3072" d="M512 0v2560h2048v-2560h-2048zM2494 66v2428h-1916v-2428h1916z"/>
    <glyph glyph-name=".notdef" unicode="Ø" horiz-adv-x="3072" d="M512 0v2560h2048v-2560h-2048zM2494 66v2428h-1916v-2428h1916z"/>
    <glyph glyph-name=".notdef" unicode="Æ" horiz-adv-x="3072" d="M512 0v2560h2048v-2560h-2048zM2494 66v2428h-1916v-2428h1916z"/>
    <glyph glyph-name=".notdef" unicode="≠" horiz-adv-x="3072" d="M512 0v2560h2048v-2560h-2048zM2494 66v2428h-1916v-2428h1916z"/>
    <glyph glyph-name=".notdef" unicode="¨" horiz-adv-x="3072" d="M512 0v2560h2048v-2560h-2048zM2494 66v2428h-1916v-2428h1916z"/>
    <glyph glyph-name=".notdef" unicode="´" horiz-adv-x="3072" d="M512 0v2560h2048v-2560h-2048zM2494 66v2428h-1916v-2428h1916z"/>
    <glyph glyph-name=".notdef" unicode="™" horiz-adv-x="3072" d="M512 0v2560h2048v-2560h-2048zM2494 66v2428h-1916v-2428h1916z"/>
    <glyph glyph-name=".notdef" unicode="©" horiz-adv-x="3072" d="M512 0v2560h2048v-2560h-2048zM2494 66v2428h-1916v-2428h1916z"/>
    <glyph glyph-name=".notdef" unicode="®" horiz-adv-x="3072" d="M512 0v2560h2048v-2560h-2048zM2494 66v2428h-1916v-2428h1916z"/>
    <glyph glyph-name=".notdef" unicode="ß" horiz-adv-x="3072" d="M512 0v2560h2048v-2560h-2048zM2494 66v2428h-1916v-2428h1916z"/>
    <glyph glyph-name=".notdef" unicode="¶" horiz-adv-x="3072" d="M512 0v2560h2048v-2560h-2048zM2494 66v2428h-1916v-2428h1916z"/>
    <glyph glyph-name=".notdef" unicode="•" horiz-adv-x="3072" d="M512 0v2560h2048v-2560h-2048zM2494 66v2428h-1916v-2428h1916z"/>
    <glyph glyph-name=".notdef" unicode="§" horiz-adv-x="3072" d="M512 0v2560h2048v-2560h-2048zM2494 66v2428h-1916v-2428h1916z"/>
    <glyph glyph-name=".notdef" unicode="£" horiz-adv-x="3072" d="M512 0v2560h2048v-2560h-2048zM2494 66v2428h-1916v-2428h1916z"/>
    <glyph glyph-name=".notdef" unicode="¢" horiz-adv-x="3072" d="M512 0v2560h2048v-2560h-2048zM2494 66v2428h-1916v-2428h1916z"/>
    <glyph glyph-name=".notdef" unicode="°" horiz-adv-x="3072" d="M512 0v2560h2048v-2560h-2048zM2494 66v2428h-1916v-2428h1916z"/>
    <glyph glyph-name=".notdef" unicode="†" horiz-adv-x="3072" d="M512 0v2560h2048v-2560h-2048zM2494 66v2428h-1916v-2428h1916z"/>
    <glyph glyph-name=".notdef" unicode="ü" horiz-adv-x="3072" d="M512 0v2560h2048v-2560h-2048zM2494 66v2428h-1916v-2428h1916z"/>
    <glyph glyph-name=".notdef" unicode="û" horiz-adv-x="3072" d="M512 0v2560h2048v-2560h-2048zM2494 66v2428h-1916v-2428h1916z"/>
    <glyph glyph-name=".notdef" unicode="ù" horiz-adv-x="3072" d="M512 0v2560h2048v-2560h-2048zM2494 66v2428h-1916v-2428h1916z"/>
    <glyph glyph-name=".notdef" unicode="ú" horiz-adv-x="3072" d="M512 0v2560h2048v-2560h-2048zM2494 66v2428h-1916v-2428h1916z"/>
    <glyph glyph-name=".notdef" unicode="õ" horiz-adv-x="3072" d="M512 0v2560h2048v-2560h-2048zM2494 66v2428h-1916v-2428h1916z"/>
    <glyph glyph-name=".notdef" unicode="ö" horiz-adv-x="3072" d="M512 0v2560h2048v-2560h-2048zM2494 66v2428h-1916v-2428h1916z"/>
    <glyph glyph-name=".notdef" unicode="ô" horiz-adv-x="3072" d="M512 0v2560h2048v-2560h-2048zM2494 66v2428h-1916v-2428h1916z"/>
    <glyph glyph-name=".notdef" unicode="ò" horiz-adv-x="3072" d="M512 0v2560h2048v-2560h-2048zM2494 66v2428h-1916v-2428h1916z"/>
    <glyph glyph-name=".notdef" unicode="ó" horiz-adv-x="3072" d="M512 0v2560h2048v-2560h-2048zM2494 66v2428h-1916v-2428h1916z"/>
    <glyph glyph-name=".notdef" unicode="ñ" horiz-adv-x="3072" d="M512 0v2560h2048v-2560h-2048zM2494 66v2428h-1916v-2428h1916z"/>
    <glyph glyph-name=".notdef" unicode="ï" horiz-adv-x="3072" d="M512 0v2560h2048v-2560h-2048zM2494 66v2428h-1916v-2428h1916z"/>
    <glyph glyph-name=".notdef" unicode="î" horiz-adv-x="3072" d="M512 0v2560h2048v-2560h-2048zM2494 66v2428h-1916v-2428h1916z"/>
    <glyph glyph-name=".notdef" unicode="ì" horiz-adv-x="3072" d="M512 0v2560h2048v-2560h-2048zM2494 66v2428h-1916v-2428h1916z"/>
    <glyph glyph-name=".notdef" unicode="í" horiz-adv-x="3072" d="M512 0v2560h2048v-2560h-2048zM2494 66v2428h-1916v-2428h1916z"/>
    <glyph glyph-name=".notdef" unicode="ë" horiz-adv-x="3072" d="M512 0v2560h2048v-2560h-2048zM2494 66v2428h-1916v-2428h1916z"/>
    <glyph glyph-name=".notdef" unicode="ê" horiz-adv-x="3072" d="M512 0v2560h2048v-2560h-2048zM2494 66v2428h-1916v-2428h1916z"/>
    <glyph glyph-name=".notdef" unicode="è" horiz-adv-x="3072" d="M512 0v2560h2048v-2560h-2048zM2494 66v2428h-1916v-2428h1916z"/>
    <glyph glyph-name=".notdef" unicode="é" horiz-adv-x="3072" d="M512 0v2560h2048v-2560h-2048zM2494 66v2428h-1916v-2428h1916z"/>
    <glyph glyph-name=".notdef" unicode="ç" horiz-adv-x="3072" d="M512 0v2560h2048v-2560h-2048zM2494 66v2428h-1916v-2428h1916z"/>
    <glyph glyph-name=".notdef" unicode="å" horiz-adv-x="3072" d="M512 0v2560h2048v-2560h-2048zM2494 66v2428h-1916v-2428h1916z"/>
    <glyph glyph-name=".notdef" unicode="ã" horiz-adv-x="3072" d="M512 0v2560h2048v-2560h-2048zM2494 66v2428h-1916v-2428h1916z"/>
    <glyph glyph-name=".notdef" unicode="ä" horiz-adv-x="3072" d="M512 0v2560h2048v-2560h-2048zM2494 66v2428h-1916v-2428h1916z"/>
    <glyph glyph-name=".notdef" unicode="â" horiz-adv-x="3072" d="M512 0v2560h2048v-2560h-2048zM2494 66v2428h-1916v-2428h1916z"/>
    <glyph glyph-name=".notdef" unicode="à" horiz-adv-x="3072" d="M512 0v2560h2048v-2560h-2048zM2494 66v2428h-1916v-2428h1916z"/>
    <glyph glyph-name=".notdef" unicode="á" horiz-adv-x="3072" d="M512 0v2560h2048v-2560h-2048zM2494 66v2428h-1916v-2428h1916z"/>
    <glyph glyph-name=".notdef" unicode="Ü" horiz-adv-x="3072" d="M512 0v2560h2048v-2560h-2048zM2494 66v2428h-1916v-2428h1916z"/>
    <glyph glyph-name=".notdef" unicode="Ö" horiz-adv-x="3072" d="M512 0v2560h2048v-2560h-2048zM2494 66v2428h-1916v-2428h1916z"/>
    <glyph glyph-name=".notdef" unicode="Ñ" horiz-adv-x="3072" d="M512 0v2560h2048v-2560h-2048zM2494 66v2428h-1916v-2428h1916z"/>
    <glyph glyph-name=".notdef" unicode="É" horiz-adv-x="3072" d="M512 0v2560h2048v-2560h-2048zM2494 66v2428h-1916v-2428h1916z"/>
    <glyph glyph-name=".notdef" unicode="Ç" horiz-adv-x="3072" d="M512 0v2560h2048v-2560h-2048zM2494 66v2428h-1916v-2428h1916z"/>
    <glyph glyph-name=".notdef" unicode="Å" horiz-adv-x="3072" d="M512 0v2560h2048v-2560h-2048zM2494 66v2428h-1916v-2428h1916z"/>
    <glyph glyph-name=".notdef" unicode="Ä" horiz-adv-x="3072" d="M512 0v2560h2048v-2560h-2048zM2494 66v2428h-1916v-2428h1916z"/>
    <glyph glyph-name=".notdef" horiz-adv-x="3072" d="M512 0v2560h2048v-2560h-2048zM2494 66v2428h-1916v-2428h1916z"/>
    <glyph glyph-name=".notdef" unicode="~" horiz-adv-x="3072" d="M512 0v2560h2048v-2560h-2048zM2494 66v2428h-1916v-2428h1916z"/>
    <glyph glyph-name=".notdef" unicode="}" horiz-adv-x="3072" d="M512 0v2560h2048v-2560h-2048zM2494 66v2428h-1916v-2428h1916z"/>
    <glyph glyph-name=".notdef" unicode="|" horiz-adv-x="3072" d="M512 0v2560h2048v-2560h-2048zM2494 66v2428h-1916v-2428h1916z"/>
    <glyph glyph-name=".notdef" unicode="{" horiz-adv-x="3072" d="M512 0v2560h2048v-2560h-2048zM2494 66v2428h-1916v-2428h1916z"/>
    <glyph glyph-name=".notdef" unicode="z" horiz-adv-x="3072" d="M512 0v2560h2048v-2560h-2048zM2494 66v2428h-1916v-2428h1916z"/>
    <glyph glyph-name=".notdef" unicode="y" horiz-adv-x="3072" d="M512 0v2560h2048v-2560h-2048zM2494 66v2428h-1916v-2428h1916z"/>
    <glyph glyph-name=".notdef" unicode="x" horiz-adv-x="3072" d="M512 0v2560h2048v-2560h-2048zM2494 66v2428h-1916v-2428h1916z"/>
    <glyph glyph-name=".notdef" unicode="w" horiz-adv-x="3072" d="M512 0v2560h2048v-2560h-2048zM2494 66v2428h-1916v-2428h1916z"/>
    <glyph glyph-name=".notdef" unicode="v" horiz-adv-x="3072" d="M512 0v2560h2048v-2560h-2048zM2494 66v2428h-1916v-2428h1916z"/>
    <glyph glyph-name=".notdef" unicode="u" horiz-adv-x="3072" d="M512 0v2560h2048v-2560h-2048zM2494 66v2428h-1916v-2428h1916z"/>
    <glyph glyph-name=".notdef" unicode="t" horiz-adv-x="3072" d="M512 0v2560h2048v-2560h-2048zM2494 66v2428h-1916v-2428h1916z"/>
    <glyph glyph-name=".notdef" unicode="s" horiz-adv-x="3072" d="M512 0v2560h2048v-2560h-2048zM2494 66v2428h-1916v-2428h1916z"/>
    <glyph glyph-name=".notdef" unicode="r" horiz-adv-x="3072" d="M512 0v2560h2048v-2560h-2048zM2494 66v2428h-1916v-2428h1916z"/>
    <glyph glyph-name=".notdef" unicode="q" horiz-adv-x="3072" d="M512 0v2560h2048v-2560h-2048zM2494 66v2428h-1916v-2428h1916z"/>
    <glyph glyph-name=".notdef" unicode="p" horiz-adv-x="3072" d="M512 0v2560h2048v-2560h-2048zM2494 66v2428h-1916v-2428h1916z"/>
    <glyph glyph-name=".notdef" unicode="`" horiz-adv-x="3072" d="M512 0v2560h2048v-2560h-2048zM2494 66v2428h-1916v-2428h1916z"/>
    <glyph glyph-name=".notdef" horiz-adv-x="3072" d="M512 0v2560h2048v-2560h-2048zM2494 66v2428h-1916v-2428h1916z"/>
    <glyph glyph-name=".notdef" horiz-adv-x="3072" d="M512 0v2560h2048v-2560h-2048zM2494 66v2428h-1916v-2428h1916z"/>
    <glyph glyph-name=".notdef" horiz-adv-x="3072" d="M512 0v2560h2048v-2560h-2048zM2494 66v2428h-1916v-2428h1916z"/>
    <glyph glyph-name=".notdef" horiz-adv-x="3072" d="M512 0v2560h2048v-2560h-2048zM2494 66v2428h-1916v-2428h1916z"/>
    <glyph glyph-name=".notdef" horiz-adv-x="3072" d="M512 0v2560h2048v-2560h-2048zM2494 66v2428h-1916v-2428h1916z"/>
    <glyph glyph-name=".notdef" horiz-adv-x="3072" d="M512 0v2560h2048v-2560h-2048zM2494 66v2428h-1916v-2428h1916z"/>
    <glyph glyph-name=".notdef" horiz-adv-x="3072" d="M512 0v2560h2048v-2560h-2048zM2494 66v2428h-1916v-2428h1916z"/>
    <glyph glyph-name=".notdef" horiz-adv-x="3072" d="M512 0v2560h2048v-2560h-2048zM2494 66v2428h-1916v-2428h1916z"/>
    <glyph glyph-name=".notdef" horiz-adv-x="3072" d="M512 0v2560h2048v-2560h-2048zM2494 66v2428h-1916v-2428h1916z"/>
    <glyph glyph-name=".notdef" horiz-adv-x="3072" d="M512 0v2560h2048v-2560h-2048zM2494 66v2428h-1916v-2428h1916z"/>
    <glyph glyph-name=".notdef" horiz-adv-x="3072" d="M512 0v2560h2048v-2560h-2048zM2494 66v2428h-1916v-2428h1916z"/>
    <glyph glyph-name=".notdef" horiz-adv-x="3072" d="M512 0v2560h2048v-2560h-2048zM2494 66v2428h-1916v-2428h1916z"/>
    <glyph glyph-name=".notdef" horiz-adv-x="3072" d="M512 0v2560h2048v-2560h-2048zM2494 66v2428h-1916v-2428h1916z"/>
    <glyph glyph-name=".notdef" horiz-adv-x="3072" d="M512 0v2560h2048v-2560h-2048zM2494 66v2428h-1916v-2428h1916z"/>
    <glyph glyph-name=".notdef" horiz-adv-x="3072" d="M512 0v2560h2048v-2560h-2048zM2494 66v2428h-1916v-2428h1916z"/>
    <glyph glyph-name=".notdef" horiz-adv-x="3072" d="M512 0v2560h2048v-2560h-2048zM2494 66v2428h-1916v-2428h1916z"/>
    <glyph glyph-name=".notdef" horiz-adv-x="3072" d="M512 0v2560h2048v-2560h-2048zM2494 66v2428h-1916v-2428h1916z"/>
    <glyph glyph-name=".notdef" horiz-adv-x="3072" d="M512 0v2560h2048v-2560h-2048zM2494 66v2428h-1916v-2428h1916z"/>
    <glyph glyph-name=".notdef" horiz-adv-x="3072" d="M512 0v2560h2048v-2560h-2048zM2494 66v2428h-1916v-2428h1916z"/>
    <glyph glyph-name=".notdef" unicode="&#xA;" horiz-adv-x="3072" d="M512 0v2560h2048v-2560h-2048zM2494 66v2428h-1916v-2428h1916z"/>
    <glyph glyph-name=".notdef" horiz-adv-x="3072" d="M512 0v2560h2048v-2560h-2048zM2494 66v2428h-1916v-2428h1916z"/>
    <glyph glyph-name=".notdef" horiz-adv-x="3072" d="M512 0v2560h2048v-2560h-2048zM2494 66v2428h-1916v-2428h1916z"/>
    <glyph glyph-name=".notdef" horiz-adv-x="3072" d="M512 0v2560h2048v-2560h-2048zM2494 66v2428h-1916v-2428h1916z"/>
    <glyph glyph-name=".notdef" horiz-adv-x="3072" d="M512 0v2560h2048v-2560h-2048zM2494 66v2428h-1916v-2428h1916z"/>
    <glyph glyph-name=".notdef" horiz-adv-x="3072" d="M512 0v2560h2048v-2560h-2048zM2494 66v2428h-1916v-2428h1916z"/>
    <glyph glyph-name=".notdef" horiz-adv-x="3072" d="M512 0v2560h2048v-2560h-2048zM2494 66v2428h-1916v-2428h1916z"/>
    <glyph glyph-name=".notdef" horiz-adv-x="3072" d="M512 0v2560h2048v-2560h-2048zM2494 66v2428h-1916v-2428h1916z"/>
    <glyph glyph-name=".null" horiz-adv-x="0"/>
    <glyph glyph-name=".null" horiz-adv-x="0"/>
    <glyph glyph-name=".null" horiz-adv-x="0"/>
    <glyph glyph-name="nonmarkingreturn" unicode=" " horiz-adv-x="0"/>
    <glyph glyph-name="nonmarkingreturn" unicode=" " horiz-adv-x="0"/>
    <glyph glyph-name="nonmarkingreturn" unicode="&#xD;" horiz-adv-x="0"/>
    <glyph glyph-name="nonmarkingreturn" unicode="&#9;" horiz-adv-x="0"/>
    <glyph glyph-name="one" unicode="1" horiz-adv-x="4280" d="M1946 3105l-9 -1544l-442 254l-1049 -1823l-446 258l1049 1823l-443 254zM1880 2990l-1126 -672l381 -221l-1049 -1827l332 -188l1052 1823l385 -226zM2134 3105l1331 -778l-442 -254l1057 -1823l-447 -258l-1057 1823l-434 -254zM2200 2990l16 -1311l393 226l1049 -1823 l336 188l-1057 1827l385 213z"/>
    <glyph glyph-name="two" unicode="2" d="M250 3994l1085 -1082l303 246l308 -1094l-1065 295l229 275l-1110 1118l242 250zM3863 3961l225 -209l-1098 -1118l225 -267l-1073 -303l283 1082l287 -242l1122 1073zM1946 1946l-275 -1074l-287 246l-1134 -1118l-250 225l1118 1143l-237 270zM2142 1946l1073 -299 l-229 -279l1110 -1143l-254 -209l-1130 1094l-271 -246z"/>
    <glyph glyph-name="three" unicode="3" d="M4096 2855l-1225 -791v463h-1822v-1286h446l-741 -1241l-754 1225h512v1839h2318v520z"/>
    <glyph glyph-name="four" unicode="4" d="M2040 1442l-471 823h311v1294h320v-1294h311zM2175 1200h946l-151 -270l1118 -651l-160 -271l-1118 647l-156 -270zM1905 1208l-471 -823l-160 270l-1122 -647l-160 271l1118 651l-152 270z"/>
    <glyph glyph-name="five" unicode="5" horiz-adv-x="4223" d="M1479 3551l-279 -184l746 -1278l-1008 -602l143 -295h-1073l520 938l177 -291l622 361l-520 954l-270 -184l16 1118zM4022 2904l-532 -983l-148 262l-655 -319l520 -942l287 135l4 -1065l-946 504l262 176l-746 1384l1016 512l-184 369z"/>
    <glyph glyph-name="six" unicode="6" horiz-adv-x="4170" d="M1479 3047l-176 -127l618 -1151l-401 -1015l225 -131l-619 -463l-118 770l241 -58l254 598l-479 -253l119 -201h-717l319 696l111 -209l344 160l-569 233l-127 -184l-496 631l799 90l-70 -258l742 -287l-447 848l-225 -94l-16 766zM3080 2494l-287 91l-278 -770l553 360 l-148 233l795 25l-356 -737l-185 258l-364 -225l680 -218l119 209l368 -639l-663 -82l57 258l-762 254l447 -831l258 90v-770l-680 377l192 110l-639 1168l389 1040l-254 115l623 479z"/>
    <glyph glyph-name="seven" unicode="7" horiz-adv-x="4248" d="M3817 3928l230 -225l-1016 -1016l234 -221l-955 -275l250 930l250 -201zM745 2040h1422v-1233h311l-479 -807l-455 807h287v881h-1086v-304l-745 480l745 454v-278z"/>
    <glyph glyph-name="eight" unicode="8" horiz-adv-x="2114" d="M1368 4096l647 -1610l-721 185q-37 -158 -143.5 -567.5t-175 -718t-110.5 -617t-42 -625.5v-143h-590q-8 164 -8 238q0 327 40.5 660t106 647.5t131.5 564t193 712.5l-696 184z"/>
    <glyph glyph-name="nine" unicode="9" horiz-adv-x="2318" d="M2216 2200l-680 393q-218 -319 -361.5 -567.5t-248.5 -528t-161 -617t-56 -753.5q0 -20 2 -62t2 -65h-647q-9 148 -9 233q0 400 70.5 777.5t192.5 712.5t278 635.5t352 611.5l-631 360l1688 725z"/>
    <glyph glyph-name="zero" unicode="0" horiz-adv-x="4289" d="M1929 3080l-8 -1519l-434 245l-1041 -1798l-438 254l1041 1802l-443 246zM2159 3080l1323 -770l-435 -246l1041 -1802l-438 -254l-1049 1798l-434 -245z"/>
    <glyph glyph-name="hyphen" unicode="-" d="M4096 3039l-303 -504h160l-1065 -1871l-344 602l-2200 -1266l-344 598l537 307l-201 336l1671 959l-192 335h704l-278 504h1855zM3744 2441l-590 -999l-307 532l-2200 -1269l-78 135l-467 -271l275 -467l2191 1274l311 -536l938 1601h-73zM1954 2441l119 -200l344 200 h-463z"/>
    <glyph glyph-name="equal" unicode="=" d="M2478 889h-2285l679 -696v-136l-872 893l872 897v-135l-671 -688h2277q16 206 130 379t295 274t386 101q218 0 404.5 -113t294.5 -304t108 -411q0 -221 -108.5 -411.5t-294.5 -301t-404 -110.5q-206 0 -387 100t-294.5 274.5t-129.5 387.5z"/>
    <glyph glyph-name="e" unicode="e" horiz-adv-x="4239" d="M3777 33h-299q-479 0 -908 24.5t-824 111.5t-603 257q-149 123 -242.5 309.5t-140.5 416t-61.5 464.5t-14.5 510q0 83 2 233t2 217h-688l1126 1520l1155 -1520h-696v-479q0 -414 53 -872q76 -561 611 -787q-90 154 -117 353t-27 483v262h-393l664 889l663 -889h-401v-160 q0 -327 65 -631q50 -218 133 -323t277 -189q-98 134 -98 496v143h-222l365 488l377 -488h-221q0 -34 -2 -88t-2 -79q0 -134 41 -267q39 -124 101 -195.5t141.5 -105.5t189 -55.5t256.5 -48.5h-262z"/>
    <glyph glyph-name="i" unicode="i" horiz-adv-x="3498" d="M3334 2441l-471 -209v-1806l-1184 -426l-974 319v1795l-705 311l1688 1671zM3113 2503l-1241 1233v-1799zM1688 1671l-816 361v-1536l816 -279v1454z"/>
    <glyph glyph-name="o" unicode="o" horiz-adv-x="2822" d="M1249 4088v-1049h463l-848 -1032l-856 1032h451v1049h790zM2695 1016h-385v-1016h-815l4 1016h-409l815 991z"/>
    <glyph glyph-name="bracketleft" unicode="[" horiz-adv-x="4280" d="M4080 1294l-2216 -1286v647l446 242l-2302 -242l1286 639l-1286 635l2302 -241l-446 241v656z"/>
    <glyph glyph-name="bracketright" unicode="]" d="M1352 4080h2744v-2753l-496 504v1274l-3104 -3105l-496 487l3113 3105h-1282z"/>
    <glyph glyph-name="backslash" unicode="\" horiz-adv-x="3097" d="M2953 2634h-520l-688 688v-3322h-528v3322l-689 -688h-528l1470 1462z"/>
    <glyph glyph-name="a" unicode="a" d="M1610 336q-103 0 -103 98q0 57 20 116t88.5 230.5t99 273t30.5 179.5q0 88 -49 143q-116 127 -312 127q-32 0 -98 -8q-104 -20 -267.5 -172t-315 -350.5t-216.5 -333.5l529 -33l-1016 -606l119 1303l200 -590q138 297 220.5 461.5t210.5 360t277 321.5t304 126 q54 0 103 -16q99 -32 236.5 -123t199 -123t162.5 -32q78 0 149 30.5t175 99.5t156 99t130 49q30 12 74 12q187 0 381 -207.5t330 -441.5t341 -624l242 577l86 -1282l-967 586l488 37q-201 306 -445 575.5t-395 296.5q-66 8 -94 8q-197 0 -307 -127q-49 -49 -49 -147 q0 -77 30.5 -180t86 -240.5t86 -225.5t30.5 -149q0 -98 -102 -98h-848z"/>
    <glyph glyph-name="d" unicode="d" d="M1618 1450q0 -136 -71.5 -201t-182.5 -65h-725v-615l-639 648l639 647v-639h721q103 6 154 55t63 154v757h1880v627l639 -643l-639 -631v606h-1106v-1503h627l-651 -647l-656 647h631v1503h-684v-700z"/>
    <glyph glyph-name="f" unicode="f" d="M1794 176v1217h-369l607 823l630 -823h-372v-1217h172q163 0 272 17t186 69q140 97 201 193t78 209q49 190 49 389q0 43 -4 157t-4 191h-385l635 823l606 -823h-365v-234q0 -207 -17 -380.5t-72.5 -323.5t-159.5 -238q-262 -209 -1287 -209h-155h-152q-1012 0 -1274 209 q-81 70 -131.5 172.5t-75.5 227t-33.5 262t-8.5 280.5q0 42 2 120t2 114h-369l606 823l635 -823h-385q0 -77 -4 -191t-4 -157q0 -199 49 -389q23 -120 80.5 -212t198.5 -190q77 -52 179.5 -69t262.5 -17h176z"/>
    <glyph glyph-name="g" unicode="g" horiz-adv-x="3678" d="M2367 3281l-823 -815v495h-921v-2383h1835v1564h-553l807 819l798 -819h-524v-2134h-2978v3601h1536v503z"/>
    <glyph glyph-name="h" unicode="h" horiz-adv-x="2224" d="M1868 3518l-574 -573v369h-798v-1114h495v-447h-983v2007h1286v328zM2122 2200v-1807h-1348v-393l-614 614l614 619v-377h787v897h-426v447h987z"/>
    <glyph glyph-name="j" unicode="j" d="M1823 2855l1954 -1024q164 -84 241.5 -153.5t77.5 -198.5q0 -121 -82 -194t-254 -175l-1847 -967q-78 -41 -148 -41q-68 0 -115.5 41.5t-47.5 98.5q0 110 147 188l1548 832h-2904q-135 0 -215 60.5t-80 139.5q0 80 77 136.5t218 56.5h2904l-1589 880q-135 78 -135 189 q0 61 48 106t116 45q50 0 86 -20z"/>
    <glyph glyph-name="k" unicode="k" horiz-adv-x="4272" d="M2408 3174l-311 -262l311 -250v512zM2519 3576v-967l528 -418q-12 67 -12 136q0 191 101 332t280 196zM2040 807q268 0 368 -193v1938l-368 287l-369 -304v-1929q138 201 369 201zM1671 3166v-520l311 258zM1561 3568l-902 -721q184 -55 284.5 -198.5t100.5 -342.5 q0 -61 -12 -123l529 410v975zM2040 0q-195 0 -337 129.5t-142 341.5v1987l-553 -418q-133 -98 -275 -98q-177 0 -301.5 141.5t-124.5 337.5q0 252 221 450l1512 1200l1511 -1192q221 -197 221 -450q0 -196 -123.5 -337.5t-302.5 -141.5q-142 0 -274 98l-553 426v-1995 q0 -210 -142.5 -338t-336.5 -141z"/>
    <glyph glyph-name="l" unicode="l" d="M762 2441l-635 -999h410q0 -476 217 -783q73 -115 188 -218t241 -173t234 -100q216 -51 320 -66.5t311 -15.5v352q-243 0 -463 78q-142 59 -232 114t-194 169q-180 201 -180 561q0 16 2 43t2 39h344zM2040 0q-399 0 -647 82q-194 53 -395.5 188t-317.5 328 q-87 132 -135 249.5t-71 238t-36 290.5h-438l762 1184l692 -1184h-397q0 -118 35 -261t100 -226q162 -201 426 -291q206 -78 430 -78t430 78q242 84 410 291q75 82 109 221.5t34 265.5h-397l700 1184l762 -1184h-455q-6 -237 -57.5 -409t-175.5 -369q-79 -132 -203 -237.5 t-255.5 -175.5t-246.5 -103q-260 -82 -663 -82z"/>
    <glyph glyph-name="semicolon" unicode=";" horiz-adv-x="3985" d="M3801 3817l-897 -2056l-463 807l-1634 -880v-1688h-807v2114l2056 1134l-487 848z"/>
    <glyph glyph-name="quotesingle" unicode="'" d="M889 1024h2318v614l889 -823l-889 -815v614h-2318v-614l-889 815l889 823v-614z"/>
    <glyph glyph-name="c" unicode="c" d="M2048 0q-3 468 -116.5 880.5t-305 758t-431.5 642.5t-540 598l-655 -671v1433h1417l-643 -635q342 -356 568 -625t393.5 -536t304.5 -579q105 239 223 442.5t259 391.5t328 398.5t472 507.5l-643 635h1417v-1433l-664 671q-409 -404 -709.5 -814.5t-487.5 -929.5 t-187 -1135z"/>
    <glyph glyph-name="b" unicode="b" d="M2400 2568v-831q0 -66 -2 -207t-2 -211q0 -441 45 -655q16 -107 116 -187t212 -80q33 0 49 4q93 13 173.5 59t175 150.5t215 291t276.5 482.5l-545 86l983 492v-1208l-254 532q-234 -443 -363 -652.5t-331 -377t-477 -199.5q-74 -8 -107 -8q-202 0 -343 94.5t-181 208.5 q-23 -102 -186 -204.5t-343 -102.5q-44 0 -94 12q-229 43 -400 152t-295 266t-199.5 296t-264.5 515l-258 -532v1208l983 -492l-537 -77q168 -381 313 -593.5t267.5 -297t255.5 -101.5q12 -4 41 -4q106 0 202.5 82.5t121.5 184.5q49 169 49 811v262v831h704z"/>
    <glyph glyph-name="n" unicode="n" horiz-adv-x="1704" d="M602 4080v-1127h1024v-1134h-1024v-988l504 472l-545 -1303l-561 1303l520 -472v1074h1032v974h-1032v1201h82z"/>
    <glyph glyph-name="m" unicode="m" horiz-adv-x="2318" d="M520 3662h1696v-3404h-1696v-250l-479 479l479 480v-230h1249v992h-528v-250l-471 475l471 471v-201h528v959h-1249v-271l-520 512l520 512v-274z"/>
    <glyph glyph-name="comma" unicode="," horiz-adv-x="2839" d="M1257 3686l-503 -94l1613 -2801l336 307l-217 -1098l-1044 401l471 103l-1610 2818l-311 -393l217 1167z"/>
    <glyph glyph-name="period" unicode="." d="M0 3039h1855l-286 -504h712l-192 -335l1671 -959l-201 -336l537 -307l-344 -598l-2208 1266l-344 -602l-1065 1871h160zM352 2441h-73l929 -1601l320 536l2191 -1274l275 467l-476 271l-69 -135l-2208 1269l-303 -532zM2142 2441h-471l352 -200z"/>
    <glyph glyph-name="slash" unicode="/" d="M991 1184l-983 1487l1786 -103l-283 -479q332 -208 612.5 -363.5t600 -299.5t655.5 -257.5t717 -201.5h-82q-114 0 -259 -4.5t-220 -4.5q-354 0 -696 91q123 -120 218 -248.5t152 -228.5t153 -278t165 -286q-271 283 -549 523.5t-560 443t-566.5 373t-577.5 315.5z"/>
    <glyph glyph-name="exclam" unicode="!" horiz-adv-x="1729" d="M831 4088l816 -1585h-541v-2487h-553v2487h-545z"/>
    <glyph glyph-name="at" unicode="@" horiz-adv-x="4289" d="M1577 1663l1520 881l-344 594l1335 -361l-361 -1327l-336 590l-1519 -881q12 -73 12 -151q0 -155 -52.5 -302.5t-151 -268t-230.5 -195.5q-218 -119 -442 -119q-231 0 -436 116t-322 322q-119 206 -119 434q0 232 116 439t322 327q201 115 439 115q331 0 569 -213z"/>
    <glyph glyph-name="numbersign" unicode="#" horiz-adv-x="1913" d="M913 4096l910 -1585l-615 672v-3175h-598v3175l-610 -672z"/>
    <glyph glyph-name="dollar" unicode="$" horiz-adv-x="1143" d="M0 4096l1098 -1593l-553 458v-2961h-545v4088v8z"/>
    <glyph glyph-name="percent" unicode="%" horiz-adv-x="1913" d="M913 4096l910 -1593h-615v-1897l-295 -606l-303 606v1897h-610z"/>
    <glyph glyph-name="asciicircum" unicode="^" horiz-adv-x="4305" d="M1200 3658l2904 422l-434 -2904l-446 446l208 1417l-3031 -3039l-401 401l3039 3031l-1417 -208z"/>
    <glyph glyph-name="ampersand" unicode="&amp;" horiz-adv-x="1880" d="M897 4096l897 -1561h-598l365 -2535l-664 446l-680 -446l377 2535h-594z"/>
    <glyph glyph-name="asterisk" unicode="*" d="M1569 1569v270h-680v-606l-889 815l889 815v-606h680v270h270v680h-606l815 889l815 -889h-606v-680h270v-270h680v606l889 -815l-889 -815v606h-680v-270h-270v-680h606l-815 -889l-815 889h606v680h-270z"/>
    <glyph glyph-name="parenleft" unicode="(" d="M1839 1839h-950v-606l-889 815l889 815v-606h950v950h-606l815 889l815 -889h-606v-950h950v606l889 -815l-889 -815v606h-950v-950h606l-815 -889l-815 889h606v950z"/>
    <glyph glyph-name="parenright" unicode=")" d="M2048 1638l-950 -958l606 -606l-1704 -74l74 1704l606 -606l958 950l-958 950l-606 -606l-74 1704l1704 -74l-606 -606l950 -958l950 950l-606 614l1704 74l-74 -1704l-606 606l-958 -950l958 -950l606 606l74 -1704l-1704 74l614 614z"/>
    <glyph glyph-name="underscore" unicode="_" d="M2056 176l-393 -176q-80 93 -134 303t-54 410q0 153 36 245q-101 -10 -332 -120t-449.5 -253.5t-299.5 -248.5l569 -168l-999 -135l135 991l135 -537q437 395 885.5 597t900.5 202q295 0 593 -88.5t587.5 -267.5t572.5 -451l160 545l127 -983l-1016 127l561 160 q-166 156 -318.5 279.5t-344.5 222.5t-389 120q45 -80 45 -254q0 -121 -24 -260.5t-66.5 -254.5t-94.5 -173l-393 168q26 59 64.5 183.5t38.5 246.5q0 153 -29.5 257t-73.5 104q-48 0 -79 -103t-31 -258q0 -119 41.5 -245t68.5 -185z"/>
    <glyph glyph-name="plus" unicode="+" horiz-adv-x="4162" d="M3969 4096l-127 -1434l-377 385l-2507 -2461l435 -402l-1393 -184l143 1335l394 -352l2498 2466l-450 405z"/>
    <glyph glyph-name="Q" unicode="Q" d="M4096 0h-1798l8 1520h238l-504 503l-463 -487h217v-1536h-1794l1991 3432z"/>
    <glyph glyph-name="W" unicode="W" d="M569 1135v-287h824v-561h-824v-287l-569 578zM2486 848v-561h-848v561h848zM3314 848v-561h-578v561h578zM3854 848v-561h-295v561h295zM4096 848v-561h-33v561h33z"/>
    <glyph glyph-name="E" unicode="E" d="M8 1638h1905v-704h-959v242l-508 -353l508 -368v250h959v-697h-1905v1630zM4096 1638v-1630h-1905v697h959v-250l508 368l-508 344v-233h-959v704h1905z"/>
    <glyph glyph-name="R" unicode="R" horiz-adv-x="4289" d="M4112 2032l-4087 -2048l2293 2048l-2293 2048z"/>
    <glyph glyph-name="T" unicode="T" horiz-adv-x="4280" d="M33 2441l2081 -1200l1966 1200l-680 -1200l680 -1225l-1966 1225l-2106 -1241l713 1241z"/>
    <glyph glyph-name="Y" unicode="Y" d="M2040 2879l-914 -925h435v-1954q-274 59 -462.5 163.5t-393.5 274.5q-162 150 -283 299.5t-216 335.5t-149 412.5t-57 496.5q16 481 195 862.5t470.5 642t647 394t719.5 133.5q363 0 714.5 -127.5t641.5 -379.5t473 -632t206 -860v-86q0 -461 -205 -864t-507 -635 q-214 -172 -398.5 -270t-433.5 -160v1954h430z"/>
    <glyph glyph-name="U" unicode="U" horiz-adv-x="3273" d="M3121 1982l-3113 -1982v4088l-8 16z"/>
    <glyph glyph-name="I" unicode="I" d="M1118 1401h1860v815l1118 -1106l-1118 -1110v795h-1860v-795l-1118 1098l1118 1118v-815z"/>
    <glyph glyph-name="O" unicode="O" d="M4096 672l-672 -672v270h-839v721h839v352zM991 991v-721h-991v721h991zM1937 991v-721h-704v721h704zM2458 991v-721h-369v721h369z"/>
    <glyph glyph-name="P" unicode="P" horiz-adv-x="2257" d="M1073 4096l1077 -1073h-548v-1069h-1041v1069h-561zM1597 1782l5 -824h-1041v824h1036zM1597 782l5 -430h-1041v430h1036zM1597 209l5 -209h-1041v209h1036z"/>
    <glyph glyph-name="A" unicode="A" d="M1704 2310l1520 873l872 -1520l-1520 -872l-303 528l-1368 -782l303 -537l-1192 319l320 1201l303 -529l1368 787z"/>
    <glyph glyph-name="S" unicode="S" horiz-adv-x="4289" d="M4088 2056l-4080 -2048l1352 2048l-1352 2048z"/>
    <glyph glyph-name="D" unicode="D" d="M4080 3006v-606l-1065 -946l1081 -893v-561h-2896h-1200v1110h1929v-647l967 999l-959 1012v-578h-1937v1110h2896h1184z"/>
    <glyph glyph-name="F" unicode="F" d="M4096 410l-1823 1822l455 471l-1511 185l253 -1401l418 418l1889 -1905h-2872h-905v2871v1225h2879h1217v-2871v-815z"/>
    <glyph glyph-name="G" unicode="G" horiz-adv-x="1610" d="M1536 3330h-545v-1876h496v-1454l-742 745l-745 -745v1454h512v1876h-512l770 766z"/>
    <glyph glyph-name="H" unicode="H" d="M1487 1479v-512h1872v512l737 -734l-737 -745v496h-1872v-496h-1487l745 745l-745 734h1487z"/>
    <glyph glyph-name="J" unicode="J" horiz-adv-x="4305" d="M950 1319h2179l967 962v-2265l-967 959h-2179l-958 -959v2265z"/>
    <glyph glyph-name="K" unicode="K" d="M4096 774l-774 -774v737h-1778l-479 -479l-33 37l438 442h-413l-488 -487l-41 29l447 458h-447l-479 -475l-41 41l471 459l-479 487l33 37l495 -491h447l-447 454l41 37l488 -491h413l-454 454l41 37l487 -491h1778v757z"/>
    <glyph glyph-name="L" unicode="L" d="M3113 1479l983 -742l-983 -737v463h-1671l-242 -463h-287l238 463h-168l-238 -463h-274l242 463h-217l-234 -463h-262l233 463v545l-233 471h262l234 -471h217l-242 471h274l238 -471h168l-238 471h287l242 -471h1671v471z"/>
    <glyph glyph-name="colon" unicode=":" horiz-adv-x="2978" d="M2839 4096l-320 -2032l-631 590l-1200 -1184v-1470h-688v1778l1368 1368l-614 688z"/>
    <glyph glyph-name="quotedbl" unicode="&quot;" horiz-adv-x="1729" d="M831 4088l816 -1585l-549 225v-2720h-545v2720l-545 -225z"/>
    <glyph glyph-name="Z" unicode="Z" horiz-adv-x="4272" d="M4071 1208l-1687 -1208v512l639 455h-3015v241v246h3015l-639 459v512z"/>
    <glyph glyph-name="X" unicode="X" d="M672 897h647v-446h-647v-451l-672 672l672 671v-446zM3424 897v446l672 -671l-672 -672v451h-647v446h647zM1753 451q-97 0 -161 63t-64 158q0 91 64 158t161 67q58 0 110 -31.5t83.5 -83.5t31.5 -110q0 -95 -67 -158t-158 -63zM1753 483q71 0 127.5 55.5t56.5 133.5 q0 74 -56 129t-128 55q-79 0 -135.5 -55.5t-56.5 -128.5q0 -77 57 -133t135 -56zM2335 451q-90 0 -155.5 63.5t-65.5 157.5q0 89 65.5 157t155.5 68q97 0 161 -66.5t64 -158.5q0 -97 -64 -159t-161 -62zM2335 483q78 0 135 55t57 134q0 75 -56.5 129.5t-135.5 54.5 q-71 0 -126 -56t-55 -128q0 -76 55.5 -132.5t125.5 -56.5z"/>
    <glyph glyph-name="C" unicode="C" d="M4096 2912v-1167h-1192v496l-823 -787l807 -831v569h1200v-1192h-4080v1192h1176v-520l839 782l-815 778v-520h-1208v1200h4088h8z"/>
    <glyph glyph-name="V" unicode="V" horiz-adv-x="3088" d="M2953 4104l-1057 -2625h451l-877 -1463l-856 1463h443l-1049 2625h2945z"/>
    <glyph glyph-name="B" unicode="B" horiz-adv-x="4305" d="M1511 3510v-504l1930 -1167v586l663 -672l-663 -663v581l-1930 -1167v-504h-1503v1503h1503v-504l1258 754l-1258 758v-504h-1503v1503h1503z"/>
    <glyph glyph-name="N" unicode="N" horiz-adv-x="4055" d="M3863 983l-984 -983v520h-1445l-242 242l242 221l-242 242l242 254h1445v495zM1241 1479l-242 -254l242 -242l-242 -221l242 -242h-1241v959h1241z"/>
    <glyph glyph-name="M" unicode="M" d="M4096 1241l-1249 -1241v889l-2847 352l2847 336v897z"/>
    <glyph glyph-name="less" unicode="&lt;" horiz-adv-x="3625" d="M958 4096l1520 -1520l680 648l299 -2151l-2183 295l655 672l-1122 1184v-3224h-803l4 4088l-8 8h958z"/>
    <glyph glyph-name="greater" unicode="&gt;" horiz-adv-x="4305" d="M1126 4080l115 -111l-897 -115l1454 -1446l729 730l1577 -1569l-1577 -1569l-1569 1569l730 721l-1455 1454l-114 -897l-111 114l111 1008z"/>
    <glyph glyph-name="question" unicode="?" horiz-adv-x="4305" d="M1569 1176h1622v630l905 -901l-905 -905v631h-1622q-85 -238 -298.5 -387.5t-471.5 -149.5q-218 0 -404.5 109t-294.5 296t-108 406q0 218 108.5 406.5t295 298.5t403.5 110q257 0 470.5 -152t299.5 -392z"/>
  </font>
</defs>
</svg>
